<mxfile host="app.diagrams.net" modified="2024-02-20T11:00:16.799Z" agent="Mozilla/5.0 (Windows NT 10.0; Win64; x64) AppleWebKit/537.36 (KHTML, like Gecko) Chrome/121.0.0.0 Safari/537.36" etag="uSqXdXQN8h3hFTxmS8w0" version="23.1.4" type="github">
  <diagram name="Page-1" id="W6RpSqsEhmErQ9kO1K_m">
    <mxGraphModel dx="1035" dy="1400" grid="0" gridSize="10" guides="1" tooltips="1" connect="1" arrows="1" fold="1" page="0" pageScale="1" pageWidth="827" pageHeight="1169" math="0" shadow="0">
      <root>
        <mxCell id="0" />
        <mxCell id="1" parent="0" />
        <mxCell id="QioDRsm_dVPqhV0Rav-W-5" value="Fait&amp;nbsp;&amp;nbsp;Activite_commerciale" style="swimlane;fontStyle=0;childLayout=stackLayout;horizontal=1;startSize=30;horizontalStack=0;resizeParent=1;resizeParentMax=0;resizeLast=0;collapsible=1;marginBottom=0;whiteSpace=wrap;html=1;fillColor=#dae8fc;strokeColor=#6c8ebf;" vertex="1" parent="1">
          <mxGeometry x="274.5" y="20" width="181" height="180" as="geometry" />
        </mxCell>
        <mxCell id="QioDRsm_dVPqhV0Rav-W-6" value="IdClient" style="text;strokeColor=none;fillColor=none;align=left;verticalAlign=middle;spacingLeft=4;spacingRight=4;overflow=hidden;points=[[0,0.5],[1,0.5]];portConstraint=eastwest;rotatable=0;whiteSpace=wrap;html=1;" vertex="1" parent="QioDRsm_dVPqhV0Rav-W-5">
          <mxGeometry y="30" width="181" height="30" as="geometry" />
        </mxCell>
        <mxCell id="QioDRsm_dVPqhV0Rav-W-39" value="IdDate" style="text;strokeColor=none;fillColor=none;align=left;verticalAlign=middle;spacingLeft=4;spacingRight=4;overflow=hidden;points=[[0,0.5],[1,0.5]];portConstraint=eastwest;rotatable=0;whiteSpace=wrap;html=1;" vertex="1" parent="QioDRsm_dVPqhV0Rav-W-5">
          <mxGeometry y="60" width="181" height="30" as="geometry" />
        </mxCell>
        <mxCell id="QioDRsm_dVPqhV0Rav-W-7" value="IdRegion" style="text;strokeColor=none;fillColor=none;align=left;verticalAlign=middle;spacingLeft=4;spacingRight=4;overflow=hidden;points=[[0,0.5],[1,0.5]];portConstraint=eastwest;rotatable=0;whiteSpace=wrap;html=1;" vertex="1" parent="QioDRsm_dVPqhV0Rav-W-5">
          <mxGeometry y="90" width="181" height="30" as="geometry" />
        </mxCell>
        <mxCell id="QioDRsm_dVPqhV0Rav-W-52" value="Nombre Facture" style="text;strokeColor=none;fillColor=none;align=left;verticalAlign=middle;spacingLeft=4;spacingRight=4;overflow=hidden;points=[[0,0.5],[1,0.5]];portConstraint=eastwest;rotatable=0;whiteSpace=wrap;html=1;" vertex="1" parent="QioDRsm_dVPqhV0Rav-W-5">
          <mxGeometry y="120" width="181" height="30" as="geometry" />
        </mxCell>
        <mxCell id="QioDRsm_dVPqhV0Rav-W-8" value="Chiffre dâ€™affaire" style="text;strokeColor=none;fillColor=none;align=left;verticalAlign=middle;spacingLeft=4;spacingRight=4;overflow=hidden;points=[[0,0.5],[1,0.5]];portConstraint=eastwest;rotatable=0;whiteSpace=wrap;html=1;" vertex="1" parent="QioDRsm_dVPqhV0Rav-W-5">
          <mxGeometry y="150" width="181" height="30" as="geometry" />
        </mxCell>
        <mxCell id="QioDRsm_dVPqhV0Rav-W-29" style="edgeStyle=none;curved=1;rounded=0;orthogonalLoop=1;jettySize=auto;html=1;fontSize=12;startSize=8;endSize=8;endArrow=none;endFill=0;" edge="1" parent="1" source="QioDRsm_dVPqhV0Rav-W-9" target="QioDRsm_dVPqhV0Rav-W-5">
          <mxGeometry relative="1" as="geometry" />
        </mxCell>
        <mxCell id="QioDRsm_dVPqhV0Rav-W-9" value="Dim&amp;nbsp; Client" style="swimlane;fontStyle=0;childLayout=stackLayout;horizontal=1;startSize=30;horizontalStack=0;resizeParent=1;resizeParentMax=0;resizeLast=0;collapsible=1;marginBottom=0;whiteSpace=wrap;html=1;" vertex="1" parent="1">
          <mxGeometry x="293" y="-176" width="140" height="150" as="geometry" />
        </mxCell>
        <mxCell id="QioDRsm_dVPqhV0Rav-W-22" value="IdClient" style="text;strokeColor=none;fillColor=none;align=left;verticalAlign=middle;spacingLeft=4;spacingRight=4;overflow=hidden;points=[[0,0.5],[1,0.5]];portConstraint=eastwest;rotatable=0;whiteSpace=wrap;html=1;" vertex="1" parent="QioDRsm_dVPqhV0Rav-W-9">
          <mxGeometry y="30" width="140" height="30" as="geometry" />
        </mxCell>
        <mxCell id="QioDRsm_dVPqhV0Rav-W-57" value="IdMethodeReglement" style="text;strokeColor=none;fillColor=none;align=left;verticalAlign=middle;spacingLeft=4;spacingRight=4;overflow=hidden;points=[[0,0.5],[1,0.5]];portConstraint=eastwest;rotatable=0;whiteSpace=wrap;html=1;" vertex="1" parent="QioDRsm_dVPqhV0Rav-W-9">
          <mxGeometry y="60" width="140" height="30" as="geometry" />
        </mxCell>
        <mxCell id="QioDRsm_dVPqhV0Rav-W-40" value="IdCategorie" style="text;strokeColor=none;fillColor=none;align=left;verticalAlign=middle;spacingLeft=4;spacingRight=4;overflow=hidden;points=[[0,0.5],[1,0.5]];portConstraint=eastwest;rotatable=0;whiteSpace=wrap;html=1;" vertex="1" parent="QioDRsm_dVPqhV0Rav-W-9">
          <mxGeometry y="90" width="140" height="30" as="geometry" />
        </mxCell>
        <mxCell id="QioDRsm_dVPqhV0Rav-W-10" value="libClient" style="text;strokeColor=none;fillColor=none;align=left;verticalAlign=middle;spacingLeft=4;spacingRight=4;overflow=hidden;points=[[0,0.5],[1,0.5]];portConstraint=eastwest;rotatable=0;whiteSpace=wrap;html=1;" vertex="1" parent="QioDRsm_dVPqhV0Rav-W-9">
          <mxGeometry y="120" width="140" height="30" as="geometry" />
        </mxCell>
        <mxCell id="QioDRsm_dVPqhV0Rav-W-72" style="edgeStyle=none;curved=1;rounded=0;orthogonalLoop=1;jettySize=auto;html=1;fontSize=12;startSize=8;endSize=8;endArrow=none;endFill=0;" edge="1" parent="1" source="QioDRsm_dVPqhV0Rav-W-16" target="QioDRsm_dVPqhV0Rav-W-63">
          <mxGeometry relative="1" as="geometry" />
        </mxCell>
        <mxCell id="QioDRsm_dVPqhV0Rav-W-16" value="Dim&amp;nbsp; Date" style="swimlane;fontStyle=0;childLayout=stackLayout;horizontal=1;startSize=24;horizontalStack=0;resizeParent=1;resizeParentMax=0;resizeLast=0;collapsible=1;marginBottom=0;whiteSpace=wrap;html=1;" vertex="1" parent="1">
          <mxGeometry x="731.5" y="289" width="140" height="84" as="geometry" />
        </mxCell>
        <mxCell id="QioDRsm_dVPqhV0Rav-W-17" value="IdDate" style="text;strokeColor=none;fillColor=none;align=left;verticalAlign=middle;spacingLeft=4;spacingRight=4;overflow=hidden;points=[[0,0.5],[1,0.5]];portConstraint=eastwest;rotatable=0;whiteSpace=wrap;html=1;" vertex="1" parent="QioDRsm_dVPqhV0Rav-W-16">
          <mxGeometry y="24" width="140" height="30" as="geometry" />
        </mxCell>
        <mxCell id="QioDRsm_dVPqhV0Rav-W-18" value="mois" style="text;strokeColor=none;fillColor=none;align=left;verticalAlign=middle;spacingLeft=4;spacingRight=4;overflow=hidden;points=[[0,0.5],[1,0.5]];portConstraint=eastwest;rotatable=0;whiteSpace=wrap;html=1;" vertex="1" parent="QioDRsm_dVPqhV0Rav-W-16">
          <mxGeometry y="54" width="140" height="30" as="geometry" />
        </mxCell>
        <mxCell id="QioDRsm_dVPqhV0Rav-W-30" style="edgeStyle=none;curved=1;rounded=0;orthogonalLoop=1;jettySize=auto;html=1;fontSize=12;startSize=8;endSize=8;" edge="1" parent="1" source="QioDRsm_dVPqhV0Rav-W-19" target="QioDRsm_dVPqhV0Rav-W-16">
          <mxGeometry relative="1" as="geometry" />
        </mxCell>
        <mxCell id="QioDRsm_dVPqhV0Rav-W-19" value="Dim&amp;nbsp; Annee" style="swimlane;fontStyle=0;childLayout=stackLayout;horizontal=1;startSize=24;horizontalStack=0;resizeParent=1;resizeParentMax=0;resizeLast=0;collapsible=1;marginBottom=0;whiteSpace=wrap;html=1;" vertex="1" parent="1">
          <mxGeometry x="295" y="271" width="140" height="84" as="geometry" />
        </mxCell>
        <mxCell id="QioDRsm_dVPqhV0Rav-W-20" value="IdAnne" style="text;strokeColor=none;fillColor=none;align=left;verticalAlign=middle;spacingLeft=4;spacingRight=4;overflow=hidden;points=[[0,0.5],[1,0.5]];portConstraint=eastwest;rotatable=0;whiteSpace=wrap;html=1;" vertex="1" parent="QioDRsm_dVPqhV0Rav-W-19">
          <mxGeometry y="24" width="140" height="30" as="geometry" />
        </mxCell>
        <mxCell id="QioDRsm_dVPqhV0Rav-W-21" value="Annee" style="text;strokeColor=none;fillColor=none;align=left;verticalAlign=middle;spacingLeft=4;spacingRight=4;overflow=hidden;points=[[0,0.5],[1,0.5]];portConstraint=eastwest;rotatable=0;whiteSpace=wrap;html=1;" vertex="1" parent="QioDRsm_dVPqhV0Rav-W-19">
          <mxGeometry y="54" width="140" height="30" as="geometry" />
        </mxCell>
        <mxCell id="QioDRsm_dVPqhV0Rav-W-28" style="edgeStyle=none;curved=1;rounded=0;orthogonalLoop=1;jettySize=auto;html=1;fontSize=12;startSize=8;endSize=8;" edge="1" parent="1" source="QioDRsm_dVPqhV0Rav-W-25" target="QioDRsm_dVPqhV0Rav-W-9">
          <mxGeometry relative="1" as="geometry" />
        </mxCell>
        <mxCell id="QioDRsm_dVPqhV0Rav-W-25" value="Dim&amp;nbsp; Categorie" style="swimlane;fontStyle=0;childLayout=stackLayout;horizontal=1;startSize=30;horizontalStack=0;resizeParent=1;resizeParentMax=0;resizeLast=0;collapsible=1;marginBottom=0;whiteSpace=wrap;html=1;" vertex="1" parent="1">
          <mxGeometry x="77" y="-131" width="140" height="60" as="geometry" />
        </mxCell>
        <mxCell id="QioDRsm_dVPqhV0Rav-W-26" value="IdCategorie" style="text;strokeColor=none;fillColor=none;align=left;verticalAlign=middle;spacingLeft=4;spacingRight=4;overflow=hidden;points=[[0,0.5],[1,0.5]];portConstraint=eastwest;rotatable=0;whiteSpace=wrap;html=1;" vertex="1" parent="QioDRsm_dVPqhV0Rav-W-25">
          <mxGeometry y="30" width="140" height="30" as="geometry" />
        </mxCell>
        <mxCell id="QioDRsm_dVPqhV0Rav-W-31" style="edgeStyle=none;curved=1;rounded=0;orthogonalLoop=1;jettySize=auto;html=1;fontSize=12;startSize=8;endSize=8;endArrow=none;endFill=0;" edge="1" parent="1" source="QioDRsm_dVPqhV0Rav-W-16" target="QioDRsm_dVPqhV0Rav-W-5">
          <mxGeometry relative="1" as="geometry" />
        </mxCell>
        <mxCell id="QioDRsm_dVPqhV0Rav-W-41" style="edgeStyle=none;curved=1;rounded=0;orthogonalLoop=1;jettySize=auto;html=1;fontSize=12;startSize=8;endSize=8;endArrow=none;endFill=0;" edge="1" parent="1" source="QioDRsm_dVPqhV0Rav-W-32" target="QioDRsm_dVPqhV0Rav-W-5">
          <mxGeometry relative="1" as="geometry" />
        </mxCell>
        <mxCell id="QioDRsm_dVPqhV0Rav-W-71" style="edgeStyle=none;curved=1;rounded=0;orthogonalLoop=1;jettySize=auto;html=1;fontSize=12;startSize=8;endSize=8;endArrow=none;endFill=0;" edge="1" parent="1" source="QioDRsm_dVPqhV0Rav-W-32" target="QioDRsm_dVPqhV0Rav-W-63">
          <mxGeometry relative="1" as="geometry" />
        </mxCell>
        <mxCell id="QioDRsm_dVPqhV0Rav-W-32" value="DIm&amp;nbsp; Region" style="swimlane;fontStyle=0;childLayout=stackLayout;horizontal=1;startSize=30;horizontalStack=0;resizeParent=1;resizeParentMax=0;resizeLast=0;collapsible=1;marginBottom=0;whiteSpace=wrap;html=1;" vertex="1" parent="1">
          <mxGeometry x="514" y="61" width="140" height="90" as="geometry" />
        </mxCell>
        <mxCell id="QioDRsm_dVPqhV0Rav-W-33" value="IdRegion" style="text;strokeColor=none;fillColor=none;align=left;verticalAlign=middle;spacingLeft=4;spacingRight=4;overflow=hidden;points=[[0,0.5],[1,0.5]];portConstraint=eastwest;rotatable=0;whiteSpace=wrap;html=1;" vertex="1" parent="QioDRsm_dVPqhV0Rav-W-32">
          <mxGeometry y="30" width="140" height="30" as="geometry" />
        </mxCell>
        <mxCell id="QioDRsm_dVPqhV0Rav-W-34" value="libRegion" style="text;strokeColor=none;fillColor=none;align=left;verticalAlign=middle;spacingLeft=4;spacingRight=4;overflow=hidden;points=[[0,0.5],[1,0.5]];portConstraint=eastwest;rotatable=0;whiteSpace=wrap;html=1;" vertex="1" parent="QioDRsm_dVPqhV0Rav-W-32">
          <mxGeometry y="60" width="140" height="30" as="geometry" />
        </mxCell>
        <mxCell id="QioDRsm_dVPqhV0Rav-W-60" style="edgeStyle=none;curved=1;rounded=0;orthogonalLoop=1;jettySize=auto;html=1;fontSize=12;startSize=8;endSize=8;" edge="1" parent="1" source="QioDRsm_dVPqhV0Rav-W-55" target="QioDRsm_dVPqhV0Rav-W-9">
          <mxGeometry relative="1" as="geometry" />
        </mxCell>
        <mxCell id="QioDRsm_dVPqhV0Rav-W-55" value="Dim&amp;nbsp; ModeReglement" style="swimlane;fontStyle=0;childLayout=stackLayout;horizontal=1;startSize=30;horizontalStack=0;resizeParent=1;resizeParentMax=0;resizeLast=0;collapsible=1;marginBottom=0;whiteSpace=wrap;html=1;" vertex="1" parent="1">
          <mxGeometry x="295" y="-380" width="140" height="90" as="geometry" />
        </mxCell>
        <mxCell id="QioDRsm_dVPqhV0Rav-W-56" value="IdMethodeReglement" style="text;strokeColor=none;fillColor=none;align=left;verticalAlign=middle;spacingLeft=4;spacingRight=4;overflow=hidden;points=[[0,0.5],[1,0.5]];portConstraint=eastwest;rotatable=0;whiteSpace=wrap;html=1;" vertex="1" parent="QioDRsm_dVPqhV0Rav-W-55">
          <mxGeometry y="30" width="140" height="30" as="geometry" />
        </mxCell>
        <mxCell id="QioDRsm_dVPqhV0Rav-W-59" value="libelle" style="text;strokeColor=none;fillColor=none;align=left;verticalAlign=middle;spacingLeft=4;spacingRight=4;overflow=hidden;points=[[0,0.5],[1,0.5]];portConstraint=eastwest;rotatable=0;whiteSpace=wrap;html=1;" vertex="1" parent="QioDRsm_dVPqhV0Rav-W-55">
          <mxGeometry y="60" width="140" height="30" as="geometry" />
        </mxCell>
        <mxCell id="QioDRsm_dVPqhV0Rav-W-63" value="Fait&amp;nbsp;&amp;nbsp;Activite_2" style="swimlane;fontStyle=0;childLayout=stackLayout;horizontal=1;startSize=30;horizontalStack=0;resizeParent=1;resizeParentMax=0;resizeLast=0;collapsible=1;marginBottom=0;whiteSpace=wrap;html=1;fillColor=#dae8fc;strokeColor=#6c8ebf;" vertex="1" parent="1">
          <mxGeometry x="711" y="-128" width="181" height="180" as="geometry" />
        </mxCell>
        <mxCell id="QioDRsm_dVPqhV0Rav-W-64" value="IdClient" style="text;strokeColor=none;fillColor=none;align=left;verticalAlign=middle;spacingLeft=4;spacingRight=4;overflow=hidden;points=[[0,0.5],[1,0.5]];portConstraint=eastwest;rotatable=0;whiteSpace=wrap;html=1;" vertex="1" parent="QioDRsm_dVPqhV0Rav-W-63">
          <mxGeometry y="30" width="181" height="30" as="geometry" />
        </mxCell>
        <mxCell id="QioDRsm_dVPqhV0Rav-W-65" value="IdDate" style="text;strokeColor=none;fillColor=none;align=left;verticalAlign=middle;spacingLeft=4;spacingRight=4;overflow=hidden;points=[[0,0.5],[1,0.5]];portConstraint=eastwest;rotatable=0;whiteSpace=wrap;html=1;" vertex="1" parent="QioDRsm_dVPqhV0Rav-W-63">
          <mxGeometry y="60" width="181" height="30" as="geometry" />
        </mxCell>
        <mxCell id="QioDRsm_dVPqhV0Rav-W-66" value="IdRegion" style="text;strokeColor=none;fillColor=none;align=left;verticalAlign=middle;spacingLeft=4;spacingRight=4;overflow=hidden;points=[[0,0.5],[1,0.5]];portConstraint=eastwest;rotatable=0;whiteSpace=wrap;html=1;" vertex="1" parent="QioDRsm_dVPqhV0Rav-W-63">
          <mxGeometry y="90" width="181" height="30" as="geometry" />
        </mxCell>
        <mxCell id="QioDRsm_dVPqhV0Rav-W-67" value="IdProduit" style="text;strokeColor=none;fillColor=none;align=left;verticalAlign=middle;spacingLeft=4;spacingRight=4;overflow=hidden;points=[[0,0.5],[1,0.5]];portConstraint=eastwest;rotatable=0;whiteSpace=wrap;html=1;" vertex="1" parent="QioDRsm_dVPqhV0Rav-W-63">
          <mxGeometry y="120" width="181" height="30" as="geometry" />
        </mxCell>
        <mxCell id="QioDRsm_dVPqhV0Rav-W-68" value="Chiffre dâ€™affaire" style="text;strokeColor=none;fillColor=none;align=left;verticalAlign=middle;spacingLeft=4;spacingRight=4;overflow=hidden;points=[[0,0.5],[1,0.5]];portConstraint=eastwest;rotatable=0;whiteSpace=wrap;html=1;" vertex="1" parent="QioDRsm_dVPqhV0Rav-W-63">
          <mxGeometry y="150" width="181" height="30" as="geometry" />
        </mxCell>
        <mxCell id="QioDRsm_dVPqhV0Rav-W-69" style="edgeStyle=none;curved=1;rounded=0;orthogonalLoop=1;jettySize=auto;html=1;entryX=1.007;entryY=-0.167;entryDx=0;entryDy=0;entryPerimeter=0;fontSize=12;startSize=8;endSize=8;endArrow=none;endFill=0;" edge="1" parent="1" source="QioDRsm_dVPqhV0Rav-W-63" target="QioDRsm_dVPqhV0Rav-W-40">
          <mxGeometry relative="1" as="geometry" />
        </mxCell>
        <mxCell id="QioDRsm_dVPqhV0Rav-W-87" style="edgeStyle=none;curved=1;rounded=0;orthogonalLoop=1;jettySize=auto;html=1;fontSize=12;startSize=8;endSize=8;endArrow=none;endFill=0;" edge="1" parent="1" source="QioDRsm_dVPqhV0Rav-W-73" target="QioDRsm_dVPqhV0Rav-W-63">
          <mxGeometry relative="1" as="geometry" />
        </mxCell>
        <mxCell id="QioDRsm_dVPqhV0Rav-W-73" value="DIm&amp;nbsp; Produit" style="swimlane;fontStyle=0;childLayout=stackLayout;horizontal=1;startSize=30;horizontalStack=0;resizeParent=1;resizeParentMax=0;resizeLast=0;collapsible=1;marginBottom=0;whiteSpace=wrap;html=1;" vertex="1" parent="1">
          <mxGeometry x="726" y="-277" width="140" height="120" as="geometry" />
        </mxCell>
        <mxCell id="QioDRsm_dVPqhV0Rav-W-74" value="IdProduit" style="text;strokeColor=none;fillColor=none;align=left;verticalAlign=middle;spacingLeft=4;spacingRight=4;overflow=hidden;points=[[0,0.5],[1,0.5]];portConstraint=eastwest;rotatable=0;whiteSpace=wrap;html=1;" vertex="1" parent="QioDRsm_dVPqhV0Rav-W-73">
          <mxGeometry y="30" width="140" height="30" as="geometry" />
        </mxCell>
        <mxCell id="QioDRsm_dVPqhV0Rav-W-82" value="IdSousFamille" style="text;strokeColor=none;fillColor=none;align=left;verticalAlign=middle;spacingLeft=4;spacingRight=4;overflow=hidden;points=[[0,0.5],[1,0.5]];portConstraint=eastwest;rotatable=0;whiteSpace=wrap;html=1;" vertex="1" parent="QioDRsm_dVPqhV0Rav-W-73">
          <mxGeometry y="60" width="140" height="30" as="geometry" />
        </mxCell>
        <mxCell id="QioDRsm_dVPqhV0Rav-W-75" value="libProduit" style="text;strokeColor=none;fillColor=none;align=left;verticalAlign=middle;spacingLeft=4;spacingRight=4;overflow=hidden;points=[[0,0.5],[1,0.5]];portConstraint=eastwest;rotatable=0;whiteSpace=wrap;html=1;" vertex="1" parent="QioDRsm_dVPqhV0Rav-W-73">
          <mxGeometry y="90" width="140" height="30" as="geometry" />
        </mxCell>
        <mxCell id="QioDRsm_dVPqhV0Rav-W-76" value="DIm&amp;nbsp; SousProduit" style="swimlane;fontStyle=0;childLayout=stackLayout;horizontal=1;startSize=30;horizontalStack=0;resizeParent=1;resizeParentMax=0;resizeLast=0;collapsible=1;marginBottom=0;whiteSpace=wrap;html=1;" vertex="1" parent="1">
          <mxGeometry x="529" y="-293" width="140" height="120" as="geometry" />
        </mxCell>
        <mxCell id="QioDRsm_dVPqhV0Rav-W-77" value="IdSousFamille" style="text;strokeColor=none;fillColor=none;align=left;verticalAlign=middle;spacingLeft=4;spacingRight=4;overflow=hidden;points=[[0,0.5],[1,0.5]];portConstraint=eastwest;rotatable=0;whiteSpace=wrap;html=1;" vertex="1" parent="QioDRsm_dVPqhV0Rav-W-76">
          <mxGeometry y="30" width="140" height="30" as="geometry" />
        </mxCell>
        <mxCell id="QioDRsm_dVPqhV0Rav-W-83" value="IdFamille" style="text;strokeColor=none;fillColor=none;align=left;verticalAlign=middle;spacingLeft=4;spacingRight=4;overflow=hidden;points=[[0,0.5],[1,0.5]];portConstraint=eastwest;rotatable=0;whiteSpace=wrap;html=1;" vertex="1" parent="QioDRsm_dVPqhV0Rav-W-76">
          <mxGeometry y="60" width="140" height="30" as="geometry" />
        </mxCell>
        <mxCell id="QioDRsm_dVPqhV0Rav-W-78" value="libSousFamille" style="text;strokeColor=none;fillColor=none;align=left;verticalAlign=middle;spacingLeft=4;spacingRight=4;overflow=hidden;points=[[0,0.5],[1,0.5]];portConstraint=eastwest;rotatable=0;whiteSpace=wrap;html=1;" vertex="1" parent="QioDRsm_dVPqhV0Rav-W-76">
          <mxGeometry y="90" width="140" height="30" as="geometry" />
        </mxCell>
        <mxCell id="QioDRsm_dVPqhV0Rav-W-86" style="edgeStyle=none;curved=1;rounded=0;orthogonalLoop=1;jettySize=auto;html=1;fontSize=12;startSize=8;endSize=8;" edge="1" parent="1" source="QioDRsm_dVPqhV0Rav-W-79" target="QioDRsm_dVPqhV0Rav-W-76">
          <mxGeometry relative="1" as="geometry" />
        </mxCell>
        <mxCell id="QioDRsm_dVPqhV0Rav-W-79" value="DIm&amp;nbsp; Famille" style="swimlane;fontStyle=0;childLayout=stackLayout;horizontal=1;startSize=30;horizontalStack=0;resizeParent=1;resizeParentMax=0;resizeLast=0;collapsible=1;marginBottom=0;whiteSpace=wrap;html=1;" vertex="1" parent="1">
          <mxGeometry x="534" y="-449" width="140" height="90" as="geometry" />
        </mxCell>
        <mxCell id="QioDRsm_dVPqhV0Rav-W-80" value="IdFamille" style="text;strokeColor=none;fillColor=none;align=left;verticalAlign=middle;spacingLeft=4;spacingRight=4;overflow=hidden;points=[[0,0.5],[1,0.5]];portConstraint=eastwest;rotatable=0;whiteSpace=wrap;html=1;" vertex="1" parent="QioDRsm_dVPqhV0Rav-W-79">
          <mxGeometry y="30" width="140" height="30" as="geometry" />
        </mxCell>
        <mxCell id="QioDRsm_dVPqhV0Rav-W-81" value="libFamille" style="text;strokeColor=none;fillColor=none;align=left;verticalAlign=middle;spacingLeft=4;spacingRight=4;overflow=hidden;points=[[0,0.5],[1,0.5]];portConstraint=eastwest;rotatable=0;whiteSpace=wrap;html=1;" vertex="1" parent="QioDRsm_dVPqhV0Rav-W-79">
          <mxGeometry y="60" width="140" height="30" as="geometry" />
        </mxCell>
        <mxCell id="QioDRsm_dVPqhV0Rav-W-85" style="edgeStyle=none;curved=1;rounded=0;orthogonalLoop=1;jettySize=auto;html=1;fontSize=12;startSize=8;endSize=8;" edge="1" parent="1" source="QioDRsm_dVPqhV0Rav-W-83" target="QioDRsm_dVPqhV0Rav-W-73">
          <mxGeometry relative="1" as="geometry" />
        </mxCell>
      </root>
    </mxGraphModel>
  </diagram>
</mxfile>
